<?xml version="1.0" encoding="UTF-8" standalone="no" ?>
<!DOCTYPE svg PUBLIC "-//W3C//DTD SVG 1.1//EN" "http://www.w3.org/Graphics/SVG/1.1/DTD/svg11.dtd">
<svg xmlns="http://www.w3.org/2000/svg" xmlns:xlink="http://www.w3.org/1999/xlink" version="1.1" width="400" height="400" viewBox="0 0 400 400" xml:space="preserve">
<desc>Created with Fabric.js 3.6.2</desc>
<defs>
</defs>
<g transform="matrix(3.33 0 0 3.33 200 200)" id="check"  >
<path style="stroke: none; stroke-width: 1; stroke-dasharray: none; stroke-linecap: butt; stroke-dashoffset: 0; stroke-linejoin: miter; stroke-miterlimit: 4; fill: rgb(16,148,214); fill-rule: evenodd; opacity: 1;"  transform=" translate(-800, -480)" d="M 800 510 a 30 30 0 1 1 30 -30 A 30 30 0 0 1 800 510 Z m -16.986 -23.235 a 3.484 3.484 0 0 1 0 -4.9 l 1.766 -1.756 a 3.185 3.185 0 0 1 4.574 0.051 l 3.12 3.237 a 1.592 1.592 0 0 0 2.311 0 l 15.9 -16.39 a 3.187 3.187 0 0 1 4.6 -0.027 L 817 468.714 a 3.482 3.482 0 0 1 0 4.846 l -21.109 21.451 a 3.185 3.185 0 0 1 -4.552 0.03 Z" stroke-linecap="round" />
</g>
</svg>